<svg viewBox="0 0 48 72" xmlns="http://www.w3.org/2000/svg" style="image-rendering: pixelated; image-rendering: crisp-edges;">
  <!-- Background -->
  <rect width="48" height="72" fill="#1a1a2e"/>
  
  <!-- Back card (darkest) -->
  <rect x="14" y="28" width="16" height="24" fill="#505050"/>
  <rect x="15" y="29" width="14" height="22" fill="#707070"/>
  
  <!-- Middle card -->
  <rect x="17" y="24" width="16" height="24" fill="#c0c0c0"/>
  <rect x="18" y="25" width="14" height="22" fill="#e8e8e8"/>
  <rect x="19" y="26" width="12" height="20" fill="#ffffff"/>
  
  <!-- Front card (Ace of Hearts) -->
  <rect x="20" y="20" width="16" height="24" fill="#d0d0d0"/>
  <rect x="21" y="21" width="14" height="22" fill="#f0f0f0"/>
  <rect x="22" y="22" width="12" height="20" fill="#ffffff"/>
  
  <!-- Card border -->
  <rect x="21" y="21" width="1" height="22" fill="#888"/>
  <rect x="34" y="21" width="1" height="22" fill="#888"/>
  <rect x="21" y="21" width="14" height="1" fill="#888"/>
  <rect x="21" y="42" width="14" height="1" fill="#888"/>
  
  <!-- Top "A" -->
  <rect x="23" y="24" width="2" height="1" fill="#cc0000"/>
  <rect x="22" y="25" width="1" height="3" fill="#cc0000"/>
  <rect x="25" y="25" width="1" height="3" fill="#cc0000"/>
  <rect x="23" y="26" width="2" height="1" fill="#cc0000"/>
  
  <!-- Top heart -->
  <rect x="23" y="29" width="1" height="1" fill="#cc0000"/>
  <rect x="24" y="29" width="1" height="1" fill="#cc0000"/>
  <rect x="22" y="30" width="1" height="1" fill="#cc0000"/>
  <rect x="23" y="30" width="2" height="1" fill="#cc0000"/>
  <rect x="25" y="30" width="1" height="1" fill="#cc0000"/>
  <rect x="23" y="31" width="2" height="1" fill="#cc0000"/>
  <rect x="24" y="32" width="1" height="1" fill="#cc0000"/>
  
  <!-- Center heart (larger) -->
  <rect x="26" y="32" width="4" height="1" fill="#cc0000"/>
  <rect x="25" y="33" width="6" height="1" fill="#cc0000"/>
  <rect x="25" y="34" width="6" height="1" fill="#cc0000"/>
  <rect x="26" y="35" width="4" height="1" fill="#cc0000"/>
  <rect x="27" y="36" width="2" height="1" fill="#cc0000"/>
  <rect x="28" y="37" width="1" height="1" fill="#cc0000"/>
  
  <!-- Bottom "A" (upside down) -->
  <rect x="30" y="39" width="2" height="1" fill="#cc0000"/>
  <rect x="29" y="38" width="1" height="3" fill="#cc0000"/>
  <rect x="32" y="38" width="1" height="3" fill="#cc0000"/>
  <rect x="30" y="37" width="2" height="1" fill="#cc0000"/>
  
  <!-- Crown above cards -->
  <rect x="18" y="14" width="2" height="2" fill="#ffd700"/>
  <rect x="20" y="12" width="2" height="4" fill="#ffd700"/>
  <rect x="22" y="10" width="2" height="6" fill="#ffd700"/>
  <rect x="24" y="8" width="2" height="8" fill="#ffd700"/>
  <rect x="26" y="10" width="2" height="6" fill="#ffd700"/>
  <rect x="28" y="12" width="2" height="4" fill="#ffd700"/>
  <rect x="30" y="14" width="2" height="2" fill="#ffd700"/>
  
  <!-- Crown band -->
  <rect x="18" y="16" width="14" height="3" fill="#f4c430"/>
  
  <!-- Crown highlights -->
  <rect x="19" y="12" width="1" height="1" fill="#ffed4e"/>
  <rect x="23" y="10" width="1" height="1" fill="#ffed4e"/>
  <rect x="25" y="8" width="1" height="1" fill="#ffed4e"/>
  <rect x="27" y="10" width="1" height="1" fill="#ffed4e"/>
  
  <!-- Crown jewels -->
  <rect x="20" y="13" width="2" height="2" fill="#cc0000"/>
  <rect x="24" y="11" width="2" height="2" fill="#0066cc"/>
  <rect x="28" y="13" width="2" height="2" fill="#00cc66"/>
  
  <!-- Jewel highlights -->
  <rect x="20" y="13" width="1" height="1" fill="#ff6666"/>
  <rect x="24" y="11" width="1" height="1" fill="#6699ff"/>
  <rect x="28" y="13" width="1" height="1" fill="#66ff99"/>
  
  <!-- Corner decorations -->
  <rect x="4" y="4" width="2" height="2" fill="#ffd700" opacity="0.5"/>
  <rect x="42" y="4" width="2" height="2" fill="#ffd700" opacity="0.5"/>
  <rect x="4" y="66" width="2" height="2" fill="#ffd700" opacity="0.5"/>
  <rect x="42" y="66" width="2" height="2" fill="#ffd700" opacity="0.5"/>
</svg>